<svg width="28" height="28" fill="none" xmlns="http://www.w3.org/2000/svg">
  <path fill="#EBF5FF" d="M0 0h28v28H0z" />
  <path
    d="M8.701 15.364h4.018c-.24.289-.393.65-.425 1.046l-.005.15v3.077c0 .454.16.87.43 1.196h-.089c-2.338 0-4.063-.732-5.117-2.212a1.88 1.88 0 01-.349-1.09v-.63c0-.849.688-1.537 1.537-1.537zm3.93-8.2a3.418 3.418 0 110 6.836 3.418 3.418 0 010-6.836z"
    fill="url(#paint0_linear)" />
  <path fill-rule="evenodd" clip-rule="evenodd"
        d="M15.878 13.655h2.05c.443 0 .807.336.85.767l.005.087v.855h.855c.66 0 1.196.536 1.196 1.196v3.077c0 .66-.536 1.196-1.196 1.196h-5.47c-.66 0-1.195-.536-1.195-1.196V16.56c0-.66.535-1.196 1.196-1.196h.854v-.855c0-.442.337-.806.768-.85l.087-.004zm1.538 1.025H16.39a.342.342 0 100 .684h1.026a.342.342 0 000-.684z"
        fill="url(#paint1_linear)" />
  <defs>
    <linearGradient id="paint0_linear" x1="11.606" y1="7.164" x2="11.606" y2="20.834" gradientUnits="userSpaceOnUse">
      <stop stop-color="#051A5A" stop-opacity=".39" />
      <stop offset="1" stop-color="#95A2AF" stop-opacity=".26" />
      <stop offset="1" stop-color="#6B92BA" stop-opacity=".26" />
    </linearGradient>
    <linearGradient id="paint1_linear" x1="16.903" y1="13.655" x2="16.903" y2="20.833" gradientUnits="userSpaceOnUse">
      <stop stop-color="#051A5A" stop-opacity=".39" />
      <stop offset="1" stop-color="#95A2AF" stop-opacity=".26" />
      <stop offset="1" stop-color="#6B92BA" stop-opacity=".26" />
    </linearGradient>
  </defs>
</svg>
