<svg width="197" height="355" viewBox="0 0 197 355" fill="none" xmlns="http://www.w3.org/2000/svg">
<path fill-rule="evenodd" clip-rule="evenodd" d="M197 98.6111L138.796 108.209C158.659 132.262 171.765 173.587 171.765 220.53C171.765 294.796 138.963 355 98.5 355C58.0372 355 25.2356 294.796 25.2356 220.53C25.2356 173.587 38.3414 132.262 58.2038 108.209L-1.88941e-08 98.6111L84.57 84.6654L98.5 1.09532e-05L112.43 84.6654L197 98.6111ZM66.103 109.512L67.1213 109.68C58.9029 124.554 53.8086 145.229 53.8086 168.087C53.8086 213.389 73.8176 250.114 98.5 250.114C123.182 250.114 143.191 213.389 143.191 168.087C143.191 145.229 138.097 124.554 129.879 109.68L130.897 109.512C133.151 112.576 135.298 115.972 137.318 119.68C147.719 138.769 154.262 165.385 154.262 194.981C154.262 224.577 147.719 251.193 137.318 270.282C126.844 289.507 112.962 300.316 98.5 300.316C84.0377 300.316 70.1561 289.507 59.6817 270.282C49.2812 251.193 42.7376 224.577 42.7376 194.981C42.7376 165.385 49.2812 138.769 59.6817 119.68C61.7021 115.972 63.8493 112.576 66.103 109.512ZM70.0429 111.803C70.3203 111.294 70.6007 110.793 70.8841 110.3L73.3381 110.705C70.104 119.548 68.2173 130.19 68.2173 141.641C68.2173 172.338 81.7753 197.222 98.5 197.222C115.225 197.222 128.783 172.338 128.783 141.641C128.783 130.19 126.896 119.548 123.662 110.705L126.116 110.3C126.399 110.793 126.68 111.294 126.957 111.803C134.706 126.025 139.609 145.918 139.609 168.087C139.609 190.256 134.706 210.149 126.957 224.372C119.134 238.729 108.916 246.528 98.5 246.528C88.084 246.528 77.8657 238.729 70.0429 224.372C62.294 210.149 57.3905 190.256 57.3905 168.087C57.3905 145.918 62.294 126.025 70.0429 111.803ZM99.0922 193.623C105.341 193.335 111.713 188.505 116.769 179.226C121.91 169.789 125.201 156.508 125.201 141.641C125.201 130.26 123.272 119.808 120.061 111.299L112.43 112.557L99.0922 193.623ZM97.9078 193.623C91.6587 193.335 85.2868 188.505 80.2313 179.226C75.0899 169.789 71.7991 156.508 71.7991 141.641C71.7991 130.26 73.7278 119.808 76.9391 111.298L84.57 112.557L97.9078 193.623ZM135.595 109.957C139.73 114.884 143.609 120.643 147.161 127.163C160.081 150.876 168.183 183.879 168.183 220.53C168.183 257.181 160.081 290.185 147.161 313.898C134.168 337.746 116.806 351.414 98.5 351.414C80.1938 351.414 62.8322 337.746 49.8387 313.898C36.9191 290.185 28.8174 257.181 28.8174 220.53C28.8174 183.879 36.9191 150.876 49.8387 127.163C53.3908 120.644 57.2693 114.885 61.4043 109.958C47.8405 129.92 39.1558 160.589 39.1558 194.981C39.1558 255.136 65.7251 303.902 98.5 303.902C131.275 303.902 157.844 255.136 157.844 194.981C157.844 160.588 149.159 129.919 135.595 109.957Z" fill="#888"/>
</svg>
