<svg width="110" height="110" viewBox="0 0 110 110" fill="none" xmlns="http://www.w3.org/2000/svg">
<path fill-rule="evenodd" clip-rule="evenodd" d="M56.238 7.51581L55 0L53.762 7.51581C28.512 8.1618 8.16187 28.5121 7.51587 53.762L0 55L7.51587 56.238C8.16187 81.4879 28.512 101.838 53.762 102.484L55 110L56.238 102.484C81.488 101.838 101.838 81.4879 102.484 56.238L110 55L102.484 53.762C101.838 28.5121 81.488 8.1618 56.238 7.51581ZM56.238 7.51581C55.8267 7.50531 55.4139 7.5 55 7.5C54.5861 7.5 54.1733 7.50531 53.762 7.51581L47.2218 47.2218L7.51587 53.762C7.50537 54.1734 7.5 54.5861 7.5 55C7.5 55.4139 7.50537 55.8266 7.51587 56.238L47.2218 62.7782L53.762 102.484C54.1733 102.495 54.5861 102.5 55 102.5C55.4139 102.5 55.8267 102.495 56.238 102.484L62.7782 62.7782L102.484 56.238C102.495 55.8266 102.5 55.4139 102.5 55C102.5 54.5861 102.495 54.1734 102.484 53.762L62.7782 47.2218L56.238 7.51581Z" fill="white"/>
</svg>
