<svg width="64" height="63" viewBox="0 0 64 63" fill="none" xmlns="http://www.w3.org/2000/svg">
<path fill-rule="evenodd" clip-rule="evenodd" d="M35.2986 28.5234L32.1311 9.67153L28.9637 28.5234L9.73416 31.6286L28.9637 34.7338L32.1311 53.5856L35.2986 34.7338L54.5281 31.6286L35.2986 28.5234ZM60.9836 31.6286L36.2115 35.6288L32.1311 59.9143L28.0508 35.6288L3.27869 31.6286L28.0508 27.6284L32.1311 3.34286L36.2115 27.6284L60.9836 31.6286Z" fill="white"/>
<path fill-rule="evenodd" clip-rule="evenodd" d="M38.315 31.6091L35.1475 12.7572L31.9801 31.6091L12.7506 34.7143L31.9801 37.8195L35.1475 56.6713L38.315 37.8195L57.5445 34.7143L38.315 31.6091ZM64 34.7143L39.2279 38.7145L35.1475 63L31.0672 38.7145L6.29508 34.7143L31.0672 30.7141L35.1475 6.42857L39.2279 30.7141L64 34.7143Z" fill="white"/>
<path d="M28.8525 0L32.9328 24.2855L57.7049 28.2857L32.9328 32.2859L28.8525 56.5714L24.7721 32.2859L0 28.2857L24.7721 24.2855L28.8525 0Z" fill="white"/>
</svg>
