<svg width="269" height="297" viewBox="0 0 269 297" fill="none" xmlns="http://www.w3.org/2000/svg">
<path fill-rule="evenodd" clip-rule="evenodd" d="M128.367 102.028C112.103 97.5675 96.9946 94.8972 84.1251 94.0928C73.3676 93.4205 64.0973 94.0466 57.0009 96.0713C49.928 98.0893 44.7681 101.576 42.7026 106.812C40.6372 112.048 42.0266 118.118 45.8167 124.422C49.6193 130.746 55.9653 137.533 64.2844 144.386C74.2369 152.585 87.0993 160.949 102.028 168.794C97.5676 185.058 94.8973 200.167 94.0929 213.037C93.4206 223.794 94.0467 233.064 96.0714 240.161C98.0894 247.234 101.576 252.394 106.812 254.459C112.048 256.525 118.118 255.135 124.422 251.345C130.746 247.542 137.533 241.196 144.386 232.877C152.585 222.925 160.949 210.062 168.794 195.133C185.059 199.594 200.167 202.264 213.037 203.069C223.794 203.741 233.065 203.115 240.161 201.09C247.234 199.072 252.394 195.585 254.459 190.35C256.525 185.114 255.135 179.043 251.345 172.74C247.542 166.415 241.197 159.629 232.877 152.775C222.925 144.577 210.063 136.212 195.134 128.367C199.594 112.103 202.264 96.9945 203.069 84.125C203.741 73.3675 203.115 64.0972 201.09 57.0008C199.072 49.9279 195.585 44.768 190.35 42.7025C185.114 40.6371 179.043 42.0265 172.74 45.8166C166.416 49.6192 159.629 55.9652 152.775 64.2843C144.577 74.2368 136.212 87.0992 128.367 102.028ZM129.724 105.153C125.722 112.901 121.861 121.199 118.237 129.931L142.783 135.227L155.671 113.676C146.817 110.363 138.118 107.519 129.724 105.153ZM127.119 104.431C123.102 112.243 119.234 120.592 115.607 129.363L80.868 121.868L111.367 140.109C108.029 148.994 105.155 157.736 102.756 166.186C88.1802 158.491 75.6503 150.32 65.9674 142.343C57.7697 135.59 51.6728 129.025 48.0851 123.058C44.4849 117.07 43.5367 111.911 45.1649 107.783C46.7931 103.656 51.0086 100.534 57.7271 98.6167C64.4222 96.7064 73.3594 96.0721 83.9599 96.7346C96.4809 97.5172 111.215 100.102 127.119 104.431ZM130.976 102.756C139.426 105.155 148.167 108.029 157.052 111.367L175.293 80.868L167.798 115.607C176.57 119.233 184.919 123.102 192.731 127.118C197.06 111.215 199.644 96.4808 200.427 83.9598C201.09 73.3593 200.455 64.4221 198.545 57.727C196.628 51.0085 193.506 46.793 189.378 45.1648C185.251 43.5366 180.092 44.4848 174.104 48.085C168.137 51.6727 161.572 57.7696 154.818 65.9673C146.842 75.6502 138.671 88.1801 130.976 102.756ZM192.009 129.724C184.26 125.722 175.963 121.861 167.231 118.237L161.935 142.783L183.485 155.671C186.798 146.817 189.642 138.118 192.009 129.724ZM194.406 130.976C192.007 139.425 189.133 148.167 185.794 157.052L216.294 175.293L181.555 167.798C177.928 176.57 174.06 184.919 170.043 192.731C185.947 197.06 200.681 199.644 213.202 200.427C223.802 201.09 232.74 200.455 239.435 198.545C246.153 196.628 250.369 193.506 251.997 189.378C253.625 185.251 252.677 180.091 249.077 174.104C245.489 168.137 239.392 161.572 231.194 154.818C221.512 146.842 208.982 138.671 194.406 130.976ZM167.438 192.009C171.439 184.26 175.301 175.962 178.925 167.231L154.379 161.935L141.49 183.485C150.345 186.798 159.044 189.642 167.438 192.009ZM129.364 181.555L121.868 216.294L140.109 185.794C148.994 189.133 157.736 192.007 166.186 194.405C158.491 208.981 150.32 221.511 142.343 231.194C135.59 239.392 129.025 245.489 123.058 249.077C117.07 252.677 111.911 253.625 107.783 251.997C103.656 250.369 100.534 246.153 98.6168 239.435C96.7065 232.74 96.0722 223.802 96.7347 213.202C97.5173 200.681 100.102 185.947 104.431 170.043C112.243 174.06 120.592 177.928 129.364 181.555ZM129.931 178.925L135.227 154.379L113.677 141.49C110.363 150.345 107.519 159.044 105.153 167.438C112.902 171.439 121.199 175.3 129.931 178.925Z" fill="#888"/>
</svg>
